<svg width="40" height="40" viewBox="0 0 40 40" fill="none" xmlns="http://www.w3.org/2000/svg">
<path d="M35.8333 2.49998C35.3913 2.49998 34.9674 2.67557 34.6548 2.98813C34.3423 3.30069 34.1667 3.72462 34.1667 4.16664C32.907 3.22001 31.4048 2.64989 29.8343 2.52243C28.2638 2.39497 26.6893 2.71538 25.2935 3.4465C23.8977 4.17762 22.7378 5.28949 21.9483 6.65313C21.1588 8.01676 20.7722 9.57629 20.8331 11.1508C20.894 12.7253 21.4001 14.2503 22.2927 15.5488C23.1852 16.8473 24.4276 17.8662 25.8757 18.4872C27.3239 19.1083 28.9184 19.306 30.4744 19.0575C32.0303 18.809 33.484 18.1245 34.6667 17.0833C35.0004 16.7916 35.2046 16.3792 35.2343 15.9369C35.264 15.4947 35.1167 15.0587 34.825 14.725C34.5333 14.3912 34.1209 14.1871 33.6786 14.1574C33.2363 14.1277 32.8004 14.2749 32.4667 14.5666C31.7264 15.2201 30.8092 15.6397 29.8307 15.7726C28.8523 15.9055 27.8564 15.7457 26.9687 15.3134C26.0809 14.881 25.341 14.1955 24.8424 13.3433C24.3437 12.491 24.1085 11.5102 24.1665 10.5245C24.2245 9.53875 24.573 8.59227 25.1682 7.80436C25.7633 7.01646 26.5785 6.42242 27.5108 6.09715C28.4431 5.77188 29.4509 5.72995 30.407 5.97663C31.3631 6.22332 32.2248 6.74758 32.8833 7.48331H30.8333C30.3913 7.48331 29.9674 7.65891 29.6548 7.97147C29.3423 8.28403 29.1667 8.70795 29.1667 9.14998C29.1667 9.59201 29.3423 10.0159 29.6548 10.3285C29.9674 10.6411 30.3913 10.8166 30.8333 10.8166H35.8333C36.2754 10.8166 36.6993 10.6411 37.0118 10.3285C37.3244 10.0159 37.5 9.59201 37.5 9.14998V4.14998C37.4956 3.71085 37.3181 3.29119 37.006 2.98223C36.6939 2.67326 36.2725 2.49996 35.8333 2.49998ZM30.8333 22.5C30.3913 22.5 29.9674 22.6756 29.6548 22.9881C29.3423 23.3007 29.1667 23.7246 29.1667 24.1666V24.8166L26.6667 22.35C26.2376 21.9181 25.7273 21.5754 25.1653 21.3415C24.6032 21.1076 24.0004 20.9872 23.3917 20.9872C22.7829 20.9872 22.1801 21.1076 21.6181 21.3415C21.056 21.5754 20.5457 21.9181 20.1167 22.35L18.95 23.5166L14.85 19.3666C13.979 18.5026 12.8019 18.0177 11.575 18.0177C10.3481 18.0177 9.17096 18.5026 8.3 19.3666L5.83333 21.8333V12.5C5.83333 12.058 6.00893 11.634 6.32149 11.3215C6.63405 11.0089 7.05797 10.8333 7.5 10.8333H15.8333C16.2754 10.8333 16.6993 10.6577 17.0118 10.3452C17.3244 10.0326 17.5 9.60867 17.5 9.16665C17.5 8.72462 17.3244 8.30069 17.0118 7.98813C16.6993 7.67557 16.2754 7.49998 15.8333 7.49998H7.5C6.17392 7.49998 4.90215 8.02676 3.96447 8.96444C3.02678 9.90213 2.5 11.1739 2.5 12.5V32.5C2.5 33.8261 3.02678 35.0978 3.96447 36.0355C4.90215 36.9732 6.17392 37.5 7.5 37.5H27.5C28.8261 37.5 30.0979 36.9732 31.0355 36.0355C31.9732 35.0978 32.5 33.8261 32.5 32.5V24.1666C32.5 23.7246 32.3244 23.3007 32.0118 22.9881C31.6993 22.6756 31.2754 22.5 30.8333 22.5ZM7.5 34.1666C7.05797 34.1666 6.63405 33.9911 6.32149 33.6785C6.00893 33.3659 5.83333 32.942 5.83333 32.5V26.55L10.6667 21.6666C10.9115 21.4333 11.2368 21.3032 11.575 21.3032C11.9132 21.3032 12.2385 21.4333 12.4833 21.6666L17.7667 26.95L25 34.1666H7.5ZM29.1667 32.5C29.1528 32.817 29.0487 33.1234 28.8667 33.3833L21.35 25.8666L22.5167 24.7C22.7603 24.4577 23.0898 24.3218 23.4333 24.3218C23.7769 24.3218 24.1064 24.4577 24.35 24.7L29.1667 29.5333V32.5Z" fill="#D9D9D9"/>
</svg>
