<svg width="89" height="89" viewBox="0 0 89 89" fill="none" xmlns="http://www.w3.org/2000/svg">
<circle cx="44.5" cy="44.5" r="44.5" fill="#D9D9D9"/>
<path d="M23.125 35C23.125 36.3063 24.1937 37.375 25.5 37.375C26.8063 37.375 27.875 36.3063 27.875 35V30.25H32.625C33.9313 30.25 35 29.1813 35 27.875C35 26.5687 33.9313 25.5 32.625 25.5H27.875V20.75C27.875 19.4437 26.8063 18.375 25.5 18.375C24.1937 18.375 23.125 19.4437 23.125 20.75V25.5H18.375C17.0687 25.5 16 26.5687 16 27.875C16 29.1813 17.0687 30.25 18.375 30.25H23.125V35Z" fill="#613C20"/>
<path d="M46.875 56.375C50.81 56.375 54 53.185 54 49.25C54 45.315 50.81 42.125 46.875 42.125C42.94 42.125 39.75 45.315 39.75 49.25C39.75 53.185 42.94 56.375 46.875 56.375Z" fill="#613C20"/>
<path d="M65.875 30.25H58.3462L55.4013 27.0438C54.5225 26.07 53.24 25.5 51.91 25.5H36.71C37.1138 26.2125 37.375 26.9962 37.375 27.875C37.375 30.4875 35.2375 32.625 32.625 32.625H30.25V35C30.25 37.6125 28.1125 39.75 25.5 39.75C24.6212 39.75 23.8375 39.4888 23.125 39.085V63.5C23.125 66.1125 25.2625 68.25 27.875 68.25H65.875C68.4875 68.25 70.625 66.1125 70.625 63.5V35C70.625 32.3875 68.4875 30.25 65.875 30.25ZM46.875 61.125C40.32 61.125 35 55.805 35 49.25C35 42.695 40.32 37.375 46.875 37.375C53.43 37.375 58.75 42.695 58.75 49.25C58.75 55.805 53.43 61.125 46.875 61.125Z" fill="#613C20"/>
</svg>
