<svg width="40" height="40" viewBox="0 0 40 40" fill="none" xmlns="http://www.w3.org/2000/svg">
<g filter="url(#filter0_d_222_2)">
<path fill-rule="evenodd" clip-rule="evenodd" d="M20 18.2167L29.5317 8.68336C29.775 8.44003 30.0967 8.31836 30.4167 8.31836C31.09 8.31836 31.6667 8.85836 31.6667 9.56669C31.6667 9.88836 31.545 10.2084 31.3017 10.4534L21.7683 19.985L31.3 29.5167C31.545 29.7617 31.6667 30.0817 31.6667 30.4017C31.6667 31.1134 31.085 31.6517 30.4167 31.6517C30.0967 31.6517 29.775 31.53 29.5317 31.2867L20 21.755L10.4683 31.2867C10.225 31.53 9.90333 31.6517 9.58333 31.6517C8.915 31.6517 8.33333 31.1134 8.33333 30.4017C8.33333 30.0817 8.455 29.7617 8.7 29.5167L18.2317 19.985L8.69833 10.4534C8.455 10.2084 8.33333 9.88836 8.33333 9.56669C8.33333 8.85836 8.91 8.31836 9.58333 8.31836C9.90333 8.31836 10.225 8.44003 10.4683 8.68336L20 18.2167Z" fill="#6388AB"/>
</g>
<defs>
<filter id="filter0_d_222_2" x="-4" y="0" width="48" height="48" filterUnits="userSpaceOnUse" color-interpolation-filters="sRGB">
<feFlood flood-opacity="0" result="BackgroundImageFix"/>
<feColorMatrix in="SourceAlpha" type="matrix" values="0 0 0 0 0 0 0 0 0 0 0 0 0 0 0 0 0 0 127 0" result="hardAlpha"/>
<feOffset dy="4"/>
<feGaussianBlur stdDeviation="2"/>
<feComposite in2="hardAlpha" operator="out"/>
<feColorMatrix type="matrix" values="0 0 0 0 0 0 0 0 0 0 0 0 0 0 0 0 0 0 0.25 0"/>
<feBlend mode="normal" in2="BackgroundImageFix" result="effect1_dropShadow_222_2"/>
<feBlend mode="normal" in="SourceGraphic" in2="effect1_dropShadow_222_2" result="shape"/>
</filter>
</defs>
</svg>
