<svg width="20" height="20" viewBox="0 0 20 20" fill="none" xmlns="http://www.w3.org/2000/svg">
<path d="M3.34583 4.57817H3.135C2.79083 4.57817 2.5125 4.299 2.5125 3.95567C2.5125 3.61234 2.79083 3.33317 3.135 3.33317H7.5125V2.49984C7.5125 2.054 7.9075 1.6665 8.34583 1.6665H11.6792C12.1175 1.6665 12.5125 2.054 12.5125 2.49984V3.33317H16.8908C17.2342 3.33317 17.5125 3.61234 17.5125 3.95567C17.5125 4.299 17.2342 4.57817 16.8908 4.57817H16.6792V17.4407C16.6792 17.9332 16.3058 18.3332 15.8458 18.3332C13.4517 18.3332 6.57333 18.3332 4.17916 18.3332C3.71916 18.3332 3.34583 17.9332 3.34583 17.4407V4.57817ZM15.4292 4.57817H4.59583V17.0832H15.4292V4.57817ZM11.8875 6.6665C11.5425 6.6665 11.2625 6.9465 11.2625 7.2915V14.3748C11.2625 14.7198 11.5425 14.9998 11.8875 14.9998C12.2325 14.9998 12.5125 14.7198 12.5125 14.3748V7.2915C12.5125 6.9465 12.2325 6.6665 11.8875 6.6665ZM8.1375 6.6665C7.7925 6.6665 7.5125 6.9465 7.5125 7.2915V14.3748C7.5125 14.7198 7.7925 14.9998 8.1375 14.9998C8.4825 14.9998 8.7625 14.7198 8.7625 14.3748V7.2915C8.7625 6.9465 8.4825 6.6665 8.1375 6.6665ZM11.2625 3.33317V2.9165H8.7625V3.33317H11.2625Z" fill="black"/>
</svg>
