<svg width="26" height="26" viewBox="0 0 26 26" fill="none" xmlns="http://www.w3.org/2000/svg">
<path d="M23.8333 5.6875H2.16667C1.71709 5.6875 1.35417 6.05042 1.35417 6.5V19.5C1.35417 19.9496 1.71709 20.3125 2.16667 20.3125H23.8333C24.2829 20.3125 24.6458 19.9496 24.6458 19.5V6.5C24.6458 6.05042 24.2829 5.6875 23.8333 5.6875ZM23.0208 18.6875H2.97917V7.3125H23.0208V18.6875Z" fill="#9B9B9B"/>
<path d="M4.33333 18.1458C4.78291 18.1458 5.14583 17.7829 5.14583 17.3333V9.98293L12.6371 13.7313C12.8646 13.845 13.1354 13.845 13.3629 13.7313L20.8542 9.98293V17.3333C20.8542 17.7829 21.2171 18.1458 21.6667 18.1458C22.1162 18.1458 22.4792 17.7829 22.4792 17.3333V8.66668C22.4792 8.38501 22.3329 8.12501 22.0946 7.97334C21.8562 7.82709 21.5529 7.81084 21.3037 7.93542L13 12.09L4.69625 7.94084C4.44708 7.81626 4.14375 7.82709 3.90541 7.97876C3.66708 8.12501 3.52083 8.38501 3.52083 8.66668V17.3333C3.52083 17.7829 3.88374 18.1458 4.33333 18.1458Z" fill="#9B9B9B"/>
</svg>
