<svg width="32" height="33" viewBox="0 0 32 33" fill="none" xmlns="http://www.w3.org/2000/svg">
<g clip-path="url(#clip0_6_41)">
<path d="M16.0244 32.5C24.8744 32.5 32.0487 25.3366 32.0487 16.5C32.0487 7.66344 24.8744 0.5 16.0244 0.5C7.17435 0.5 -1.52588e-05 7.66344 -1.52588e-05 16.5C-1.52588e-05 25.3366 7.17435 32.5 16.0244 32.5Z" fill="#E0E0E0"/>
<path d="M16.0244 32.0137C24.7399 32.0137 31.8052 24.9591 31.8052 16.2568C31.8052 7.55457 24.7399 0.5 16.0244 0.5C7.30886 0.5 0.24353 7.55457 0.24353 16.2568C0.24353 24.9591 7.30886 32.0137 16.0244 32.0137Z" fill="white"/>
<mask id="mask0_6_41" style="mask-type:luminance" maskUnits="userSpaceOnUse" x="5" y="5" width="22" height="23">
<path d="M26.2527 14.4088H16.2679V18.5426H22.0152C21.4795 21.1687 19.239 22.6763 16.2679 22.6763C12.761 22.6763 9.93608 19.8556 9.93608 16.3541C9.93608 12.8526 12.761 10.0319 16.2679 10.0319C17.7778 10.0319 19.1416 10.5669 20.2131 11.4423L23.3303 8.3298C21.4308 6.67631 18.9954 5.65503 16.2679 5.65503C10.3257 5.65503 5.55252 10.421 5.55252 16.3541C5.55252 22.2872 10.3257 27.0532 16.2679 27.0532C21.6256 27.0532 26.4962 23.1626 26.4962 16.3541C26.4962 15.7219 26.3988 15.041 26.2527 14.4088Z" fill="white"/>
</mask>
<g mask="url(#mask0_6_41)">
<path d="M4.5784 22.6764V10.032L12.8585 16.3542L4.5784 22.6764Z" fill="#FBBC05"/>
</g>
<mask id="mask1_6_41" style="mask-type:luminance" maskUnits="userSpaceOnUse" x="5" y="5" width="22" height="23">
<path d="M26.2527 14.4088H16.2679V18.5426H22.0152C21.4795 21.1687 19.239 22.6763 16.2679 22.6763C12.761 22.6763 9.93608 19.8556 9.93608 16.3541C9.93608 12.8526 12.761 10.0319 16.2679 10.0319C17.7778 10.0319 19.1416 10.5669 20.2131 11.4423L23.3303 8.3298C21.4308 6.67631 18.9954 5.65503 16.2679 5.65503C10.3257 5.65503 5.55252 10.421 5.55252 16.3541C5.55252 22.2872 10.3257 27.0532 16.2679 27.0532C21.6256 27.0532 26.4962 23.1626 26.4962 16.3541C26.4962 15.7219 26.3988 15.041 26.2527 14.4088Z" fill="white"/>
</mask>
<g mask="url(#mask1_6_41)">
<path d="M4.5784 10.0319L12.8585 16.3541L16.2679 13.3876L27.9574 11.4909V4.68237H4.5784V10.0319Z" fill="#EA4335"/>
</g>
<mask id="mask2_6_41" style="mask-type:luminance" maskUnits="userSpaceOnUse" x="5" y="5" width="22" height="23">
<path d="M26.2527 14.4088H16.2679V18.5426H22.0152C21.4795 21.1687 19.239 22.6763 16.2679 22.6763C12.761 22.6763 9.93608 19.8556 9.93608 16.3541C9.93608 12.8526 12.761 10.0319 16.2679 10.0319C17.7778 10.0319 19.1416 10.5669 20.2131 11.4423L23.3303 8.3298C21.4308 6.67631 18.9954 5.65503 16.2679 5.65503C10.3257 5.65503 5.55252 10.421 5.55252 16.3541C5.55252 22.2872 10.3257 27.0532 16.2679 27.0532C21.6256 27.0532 26.4962 23.1626 26.4962 16.3541C26.4962 15.7219 26.3988 15.041 26.2527 14.4088Z" fill="white"/>
</mask>
<g mask="url(#mask2_6_41)">
<path d="M4.5784 22.6763L19.1903 11.4909L23.0381 11.9772L27.9574 4.68237V28.0258H4.5784V22.6763Z" fill="#34A853"/>
</g>
<mask id="mask3_6_41" style="mask-type:luminance" maskUnits="userSpaceOnUse" x="5" y="5" width="22" height="23">
<path d="M26.2527 14.4088H16.2679V18.5426H22.0152C21.4795 21.1687 19.239 22.6763 16.2679 22.6763C12.761 22.6763 9.93608 19.8556 9.93608 16.3541C9.93608 12.8526 12.761 10.0319 16.2679 10.0319C17.7778 10.0319 19.1416 10.5669 20.2131 11.4423L23.3303 8.3298C21.4308 6.67631 18.9954 5.65503 16.2679 5.65503C10.3257 5.65503 5.55252 10.421 5.55252 16.3541C5.55252 22.2872 10.3257 27.0532 16.2679 27.0532C21.6256 27.0532 26.4962 23.1626 26.4962 16.3541C26.4962 15.7219 26.3988 15.041 26.2527 14.4088Z" fill="white"/>
</mask>
<g mask="url(#mask3_6_41)">
<path d="M27.9574 28.0259L12.8585 16.3542L10.9102 14.8952L27.9574 10.032V28.0259Z" fill="#4285F4"/>
</g>
</g>
<defs>
<clipPath id="clip0_6_41">
<rect width="32" height="32" fill="white" transform="translate(0 0.5)"/>
</clipPath>
</defs>
</svg>
