<svg width="137" height="59" viewBox="0 0 137 59" fill="none" xmlns="http://www.w3.org/2000/svg">
<rect y="3" width="58" height="53" rx="26.5" fill="white"/>
<path d="M18.5225 22.0793L15.298 25.3788V22.0793H18.5225Z" fill="#886A54"/>
<path d="M26.036 11.3713H13.1556C12.5628 11.3713 12.0823 11.8519 12.0823 12.4447V21.0316C12.0823 21.6244 12.5628 22.105 13.1556 22.105H26.036C26.6288 22.105 27.1094 21.6244 27.1094 21.0316V12.4447C27.1094 11.8519 26.6288 11.3713 26.036 11.3713Z" fill="#886A54"/>
<path d="M40.5402 45.4182L37.3158 48.7177V45.4182H40.5402Z" fill="#886A54"/>
<path d="M48.0538 34.7102H35.1734C34.5806 34.7102 34.1 35.1908 34.1 35.7836V44.3705C34.1 44.9633 34.5806 45.4439 35.1734 45.4439H48.0538C48.6466 45.4439 49.1272 44.9633 49.1272 44.3705V35.7836C49.1272 35.1908 48.6466 34.7102 48.0538 34.7102Z" fill="#886A54"/>
<g clip-path="url(#clip0_7_246)">
<path d="M38.1751 19.4659L36.9691 21.5841L32.5172 13.4945L41.7459 13.1941L40.5399 15.3124C40.5399 15.3124 51.5314 21.0548 47.7123 27.7627C46.4723 22.1274 38.1751 19.4659 38.1751 19.4659Z" stroke="#886A54" stroke-width="2" stroke-linecap="round" stroke-linejoin="round"/>
<path d="M33.4422 15.4582L40.8448 15.3073" stroke="#886A54" stroke-miterlimit="10"/>
<path d="M32.5172 13.4945L33.232 14.6784L41.0116 14.3779L41.7459 13.1941L32.5172 13.4945Z" fill="#886A54"/>
</g>
<path d="M20.7972 38.6235L22.4939 36.4912L25.3063 45.6255L15.7736 44.937L17.4703 42.8046C17.4703 42.8046 7.44014 35.4639 12.813 28.7114C12.8627 34.8708 20.7972 38.6235 20.7972 38.6235Z" stroke="#886A54" stroke-width="2" stroke-linecap="round" stroke-linejoin="round"/>
<path d="M24.7831 43.4254L17.1564 42.7768" stroke="#886A54" stroke-miterlimit="10"/>
<path d="M25.3063 45.6255L24.8297 44.2818L16.7837 43.752L15.7736 44.937L25.3063 45.6255Z" fill="#886A54"/>
<path d="M74.48 35.26C72.8 35.26 71.4933 34.64 70.56 33.4C69.64 32.16 69.18 30.3867 69.18 28.08C69.18 25.76 69.6533 23.98 70.6 22.74C71.5467 21.5 72.8733 20.88 74.58 20.88C75.2867 20.88 75.94 20.9733 76.54 21.16C77.1533 21.3333 77.64 21.58 78 21.9C78.3733 22.2067 78.56 22.54 78.56 22.9C78.56 23.1533 78.44 23.3733 78.2 23.56C77.96 23.7467 77.6467 23.82 77.26 23.78C77.1533 23.0867 76.8667 22.5533 76.4 22.18C75.9467 21.8067 75.3467 21.62 74.6 21.62C73.4 21.62 72.4933 22.1667 71.88 23.26C71.2667 24.34 70.96 25.9467 70.96 28.08C70.96 30.2 71.2667 31.8067 71.88 32.9C72.4933 33.98 73.3867 34.52 74.56 34.52C75.3067 34.52 75.96 34.2933 76.52 33.84C77.08 33.3867 77.44 32.7533 77.6 31.94L77.84 31.92C78.1467 31.92 78.4067 31.9933 78.62 32.14C78.8333 32.2733 78.94 32.4733 78.94 32.74C78.94 33.18 78.7267 33.5933 78.3 33.98C77.8867 34.3667 77.3333 34.68 76.64 34.92C75.96 35.1467 75.24 35.26 74.48 35.26ZM91.6341 32.72C91.6341 33.68 91.7141 34.3933 91.8741 34.86C91.6074 35.1 91.3007 35.22 90.9541 35.22C90.6874 35.22 90.4674 35.14 90.2941 34.98C90.1341 34.82 90.0541 34.6067 90.0541 34.34L90.0341 28.94C90.0341 27.7667 89.8741 26.8933 89.5541 26.32C89.2474 25.7467 88.7141 25.46 87.9541 25.46C87.4874 25.46 87.0341 25.6267 86.5941 25.96C86.1674 26.28 85.8141 26.7933 85.5341 27.5C85.2674 28.2067 85.1341 29.1 85.1341 30.18C85.1341 31.9 85.1474 33.02 85.1741 33.54C85.2007 34.06 85.2807 34.5 85.4141 34.86C85.1341 35.1 84.8274 35.22 84.4941 35.22C84.2141 35.22 83.9874 35.1333 83.8141 34.96C83.6541 34.7867 83.5741 34.5533 83.5741 34.26L83.5541 21.28C83.5541 20.9867 83.6341 20.7667 83.7941 20.62C83.9541 20.4733 84.1741 20.4 84.4541 20.4C84.6541 20.4 84.8407 20.44 85.0141 20.52C85.1874 20.5867 85.3207 20.6667 85.4141 20.76C85.3074 21.0933 85.2341 21.4933 85.1941 21.96C85.1674 22.4133 85.1474 23.0533 85.1341 23.88L85.1141 26.9C85.4074 26.1667 85.8407 25.6 86.4141 25.2C86.9874 24.7867 87.6541 24.58 88.4141 24.58C89.5074 24.58 90.3141 24.9333 90.8341 25.64C91.3541 26.3333 91.6141 27.3667 91.6141 28.74L91.6341 32.72ZM105.725 33.54C105.871 33.74 105.945 33.9467 105.945 34.16C105.945 34.4533 105.805 34.7 105.525 34.9C105.258 35.1 104.931 35.2 104.545 35.2C103.971 35.2 103.538 35 103.245 34.6C102.951 34.2 102.805 33.5733 102.805 32.72V32.14C102.365 33.0867 101.765 33.84 101.005 34.4C100.258 34.9467 99.4379 35.22 98.5445 35.22C97.7712 35.22 97.1579 35.0133 96.7045 34.6C96.2645 34.1733 96.0445 33.6067 96.0445 32.9C96.0445 32.1133 96.3445 31.4467 96.9445 30.9C97.5445 30.3533 98.3512 29.94 99.3645 29.66C100.258 29.42 101.185 29.3 102.145 29.3C102.411 29.3 102.605 29.3067 102.725 29.32V28.8C102.725 27.6133 102.525 26.7333 102.125 26.16C101.738 25.5867 101.091 25.3 100.185 25.3C99.5979 25.3 99.1045 25.4267 98.7045 25.68C98.3045 25.9333 98.1045 26.3467 98.1045 26.92C98.1045 27.2267 98.1712 27.5133 98.3045 27.78C98.4512 28.0467 98.6712 28.2333 98.9645 28.34C98.7512 28.6067 98.4312 28.74 98.0045 28.74C97.5645 28.74 97.2045 28.5667 96.9245 28.22C96.6445 27.86 96.5045 27.4467 96.5045 26.98C96.5045 26.2067 96.8445 25.6133 97.5245 25.2C98.2045 24.7867 99.1379 24.58 100.325 24.58C101.698 24.58 102.711 24.9333 103.365 25.64C104.018 26.3467 104.345 27.4333 104.345 28.9V32.9C104.345 33.6067 104.585 33.96 105.065 33.96C105.171 33.96 105.291 33.9267 105.425 33.86C105.558 33.78 105.658 33.6733 105.725 33.54ZM99.1845 34.1C99.7179 34.1 100.258 33.9067 100.805 33.52C101.365 33.12 101.825 32.6 102.185 31.96C102.558 31.32 102.751 30.6533 102.765 29.96L102.305 29.94C101.838 29.94 101.365 29.98 100.885 30.06C100.405 30.1267 99.9979 30.2267 99.6645 30.36C99.0779 30.5733 98.6179 30.8667 98.2845 31.24C97.9512 31.6133 97.7845 32.0533 97.7845 32.56C97.7845 33 97.8979 33.3667 98.1245 33.66C98.3512 33.9533 98.7045 34.1 99.1845 34.1ZM112.461 24.86C112.674 24.86 112.954 24.8533 113.301 24.84C113.661 24.8267 113.947 24.8133 114.161 24.8L114.141 25.24C114.127 25.3733 114.081 25.4867 114.001 25.58C113.921 25.66 113.821 25.7 113.701 25.7H111.641V26.46V32.9C111.641 33.2467 111.721 33.5133 111.881 33.7C112.041 33.8867 112.281 33.98 112.601 33.98C112.801 33.98 112.987 33.9467 113.161 33.88C113.347 33.8 113.474 33.6933 113.541 33.56C113.687 33.76 113.761 33.9733 113.761 34.2C113.761 34.5067 113.601 34.7533 113.281 34.94C112.961 35.1267 112.554 35.22 112.061 35.22C111.434 35.22 110.941 35.0267 110.581 34.64C110.221 34.24 110.041 33.6933 110.041 33V25.7H109.761C109.214 25.7 108.814 25.72 108.561 25.76L108.581 25.3C108.594 25.0067 108.741 24.86 109.021 24.86H110.041V23.08C110.041 22.8 110.127 22.5867 110.301 22.44C110.474 22.28 110.701 22.2 110.981 22.2C111.314 22.2 111.621 22.32 111.901 22.56C111.754 23.0133 111.674 23.78 111.661 24.86H112.461ZM121.238 24.86C121.451 24.86 121.731 24.8533 122.078 24.84C122.438 24.8267 122.725 24.8133 122.938 24.8L122.918 25.24C122.905 25.3733 122.858 25.4867 122.778 25.58C122.698 25.66 122.598 25.7 122.478 25.7H120.418V26.46V32.9C120.418 33.2467 120.498 33.5133 120.658 33.7C120.818 33.8867 121.058 33.98 121.378 33.98C121.578 33.98 121.765 33.9467 121.938 33.88C122.125 33.8 122.251 33.6933 122.318 33.56C122.465 33.76 122.538 33.9733 122.538 34.2C122.538 34.5067 122.378 34.7533 122.058 34.94C121.738 35.1267 121.331 35.22 120.838 35.22C120.211 35.22 119.718 35.0267 119.358 34.64C118.998 34.24 118.818 33.6933 118.818 33V25.7H118.538C117.991 25.7 117.591 25.72 117.338 25.76L117.358 25.3C117.371 25.0067 117.518 24.86 117.798 24.86H118.818V23.08C118.818 22.8 118.905 22.5867 119.078 22.44C119.251 22.28 119.478 22.2 119.758 22.2C120.091 22.2 120.398 22.32 120.678 22.56C120.531 23.0133 120.451 23.78 120.438 24.86H121.238ZM135.195 34.02C135.195 37.78 133.629 39.66 130.495 39.66C129.535 39.66 128.722 39.4867 128.055 39.14C127.402 38.7933 127.075 38.2467 127.075 37.5C127.075 37.1267 127.182 36.8133 127.395 36.56C127.622 36.3067 127.915 36.18 128.275 36.18C128.635 36.18 128.895 36.28 129.055 36.48C128.882 36.5867 128.755 36.7267 128.675 36.9C128.595 37.0867 128.555 37.26 128.555 37.42C128.555 37.94 128.742 38.3267 129.115 38.58C129.502 38.8467 129.962 38.98 130.495 38.98C131.589 38.98 132.395 38.5667 132.915 37.74C133.435 36.9133 133.695 35.68 133.695 34.04C133.695 33.6 133.715 33.12 133.755 32.6C133.475 33.4133 133.042 34.0467 132.455 34.5C131.869 34.9533 131.149 35.18 130.295 35.18C129.269 35.18 128.509 34.86 128.015 34.22C127.522 33.5667 127.269 32.4867 127.255 30.98V27.1C127.255 26.18 127.169 25.46 126.995 24.94C127.289 24.7 127.602 24.58 127.935 24.58C128.202 24.58 128.415 24.66 128.575 24.82C128.749 24.98 128.835 25.2 128.835 25.48L128.855 30.78C128.855 32.0067 128.995 32.9 129.275 33.46C129.569 34.0067 130.049 34.28 130.715 34.28C131.529 34.28 132.215 33.8933 132.775 33.12C133.335 32.3333 133.615 31.1333 133.615 29.52C133.615 27.84 133.602 26.7467 133.575 26.24C133.549 25.7333 133.469 25.3 133.335 24.94C133.615 24.7 133.922 24.58 134.255 24.58C134.522 24.58 134.742 24.6667 134.915 24.84C135.089 25.0133 135.175 25.2467 135.175 25.54L135.195 34.02Z" fill="white"/>
<defs>
<clipPath id="clip0_7_246">
<rect width="27.9871" height="19.1179" fill="white" transform="translate(33.6787 3.5) rotate(29.6551)"/>
</clipPath>
</defs>
</svg>
