<svg width="259" height="93" viewBox="0 0 259 93" fill="none" xmlns="http://www.w3.org/2000/svg">
<rect y="3.5" width="94" height="86" rx="43" fill="white"/>
<path d="M32.1654 36.0957L27.7259 40.6386V36.0957H32.1654Z" fill="#886A54"/>
<path d="M42.5105 21.3525H24.7761C23.9599 21.3525 23.2982 22.0141 23.2982 22.8303V34.6533C23.2982 35.4695 23.9599 36.1312 24.7761 36.1312H42.5105C43.3267 36.1312 43.9884 35.4695 43.9884 34.6533V22.8303C43.9884 22.0141 43.3267 21.3525 42.5105 21.3525Z" fill="#886A54"/>
<path d="M62.749 68.2937L58.243 72.9047V68.2937H62.749Z" fill="#886A54"/>
<path d="M73.249 53.3297H55.249C54.4206 53.3297 53.749 54.0013 53.749 54.8297V66.8297C53.749 67.6581 54.4206 68.3297 55.249 68.3297H73.249C74.0775 68.3297 74.749 67.6581 74.749 66.8297V54.8297C74.749 54.0013 74.0775 53.3297 73.249 53.3297Z" fill="#886A54"/>
<path d="M59.2242 32.4975L57.5637 35.414L51.434 24.2759L64.1407 23.8623L62.4801 26.7788C62.4801 26.7788 77.6138 34.6853 72.3554 43.921C70.6482 36.1621 59.2242 32.4975 59.2242 32.4975Z" stroke="#886A54" stroke-width="2" stroke-linecap="round" stroke-linejoin="round"/>
<path d="M52.7077 26.9794L62.8999 26.7717" stroke="#886A54" stroke-miterlimit="10"/>
<path d="M35.2973 58.8747L37.6334 55.9388L41.5057 68.5154L28.3807 67.5674L30.7168 64.6315C30.7168 64.6315 16.9067 54.5244 24.3043 45.2272C24.3728 53.7077 35.2973 58.8747 35.2973 58.8747Z" stroke="#886A54" stroke-width="2" stroke-linecap="round" stroke-linejoin="round"/>
<path d="M40.7855 65.4862L30.2846 64.5932" stroke="#886A54" stroke-miterlimit="10"/>
<path d="M41.5057 68.5154L40.8496 66.6654L29.7714 65.9359L28.3807 67.5674L41.5057 68.5154Z" fill="#886A54"/>
<path d="M133.96 57.52C130.6 57.52 127.987 56.28 126.12 53.8C124.28 51.32 123.36 47.7733 123.36 43.16C123.36 38.52 124.307 34.96 126.2 32.48C128.093 30 130.747 28.76 134.16 28.76C135.573 28.76 136.88 28.9467 138.08 29.32C139.307 29.6667 140.28 30.16 141 30.8C141.747 31.4133 142.12 32.08 142.12 32.8C142.12 33.3067 141.88 33.7467 141.4 34.12C140.92 34.4933 140.293 34.64 139.52 34.56C139.307 33.1733 138.733 32.1067 137.8 31.36C136.893 30.6133 135.693 30.24 134.2 30.24C131.8 30.24 129.987 31.3333 128.76 33.52C127.533 35.68 126.92 38.8933 126.92 43.16C126.92 47.4 127.533 50.6133 128.76 52.8C129.987 54.96 131.773 56.04 134.12 56.04C135.613 56.04 136.92 55.5867 138.04 54.68C139.16 53.7733 139.88 52.5067 140.2 50.88L140.68 50.84C141.293 50.84 141.813 50.9867 142.24 51.28C142.667 51.5467 142.88 51.9467 142.88 52.48C142.88 53.36 142.453 54.1867 141.6 54.96C140.773 55.7333 139.667 56.36 138.28 56.84C136.92 57.2933 135.48 57.52 133.96 57.52ZM168.268 52.44C168.268 54.36 168.428 55.7867 168.748 56.72C168.215 57.2 167.601 57.44 166.908 57.44C166.375 57.44 165.935 57.28 165.588 56.96C165.268 56.64 165.108 56.2133 165.108 55.68L165.068 44.88C165.068 42.5333 164.748 40.7867 164.108 39.64C163.495 38.4933 162.428 37.92 160.908 37.92C159.975 37.92 159.068 38.2533 158.188 38.92C157.335 39.56 156.628 40.5867 156.068 42C155.535 43.4133 155.268 45.2 155.268 47.36C155.268 50.8 155.295 53.04 155.348 54.08C155.401 55.12 155.561 56 155.828 56.72C155.268 57.2 154.655 57.44 153.988 57.44C153.428 57.44 152.975 57.2667 152.628 56.92C152.308 56.5733 152.148 56.1067 152.148 55.52L152.108 29.56C152.108 28.9733 152.268 28.5333 152.588 28.24C152.908 27.9467 153.348 27.8 153.908 27.8C154.308 27.8 154.681 27.88 155.028 28.04C155.375 28.1733 155.641 28.3333 155.828 28.52C155.615 29.1867 155.468 29.9867 155.388 30.92C155.335 31.8267 155.295 33.1067 155.268 34.76L155.228 40.8C155.815 39.3333 156.681 38.2 157.828 37.4C158.975 36.5733 160.308 36.16 161.828 36.16C164.015 36.16 165.628 36.8667 166.668 38.28C167.708 39.6667 168.228 41.7333 168.228 44.48L168.268 52.44ZM196.449 54.08C196.742 54.48 196.889 54.8933 196.889 55.32C196.889 55.9067 196.609 56.4 196.049 56.8C195.516 57.2 194.862 57.4 194.089 57.4C192.942 57.4 192.076 57 191.489 56.2C190.902 55.4 190.609 54.1467 190.609 52.44V51.28C189.729 53.1733 188.529 54.68 187.009 55.8C185.516 56.8933 183.876 57.44 182.089 57.44C180.542 57.44 179.316 57.0267 178.409 56.2C177.529 55.3467 177.089 54.2133 177.089 52.8C177.089 51.2267 177.689 49.8933 178.889 48.8C180.089 47.7067 181.702 46.88 183.729 46.32C185.516 45.84 187.369 45.6 189.289 45.6C189.822 45.6 190.209 45.6133 190.449 45.64V44.6C190.449 42.2267 190.049 40.4667 189.249 39.32C188.476 38.1733 187.182 37.6 185.369 37.6C184.196 37.6 183.209 37.8533 182.409 38.36C181.609 38.8667 181.209 39.6933 181.209 40.84C181.209 41.4533 181.342 42.0267 181.609 42.56C181.902 43.0933 182.342 43.4667 182.929 43.68C182.502 44.2133 181.862 44.48 181.009 44.48C180.129 44.48 179.409 44.1333 178.849 43.44C178.289 42.72 178.009 41.8933 178.009 40.96C178.009 39.4133 178.689 38.2267 180.049 37.4C181.409 36.5733 183.276 36.16 185.649 36.16C188.396 36.16 190.422 36.8667 191.729 38.28C193.036 39.6933 193.689 41.8667 193.689 44.8V52.8C193.689 54.2133 194.169 54.92 195.129 54.92C195.342 54.92 195.582 54.8533 195.849 54.72C196.116 54.56 196.316 54.3467 196.449 54.08ZM183.369 55.2C184.436 55.2 185.516 54.8133 186.609 54.04C187.729 53.24 188.649 52.2 189.369 50.92C190.116 49.64 190.502 48.3067 190.529 46.92L189.609 46.88C188.676 46.88 187.729 46.96 186.769 47.12C185.809 47.2533 184.996 47.4533 184.329 47.72C183.156 48.1467 182.236 48.7333 181.569 49.48C180.902 50.2267 180.569 51.1067 180.569 52.12C180.569 53 180.796 53.7333 181.249 54.32C181.702 54.9067 182.409 55.2 183.369 55.2ZM209.921 36.72C210.348 36.72 210.908 36.7067 211.601 36.68C212.321 36.6533 212.895 36.6267 213.321 36.6L213.281 37.48C213.255 37.7467 213.161 37.9733 213.001 38.16C212.841 38.32 212.641 38.4 212.401 38.4H208.281V39.92V52.8C208.281 53.4933 208.441 54.0267 208.761 54.4C209.081 54.7733 209.561 54.96 210.201 54.96C210.601 54.96 210.975 54.8933 211.321 54.76C211.695 54.6 211.948 54.3867 212.081 54.12C212.375 54.52 212.521 54.9467 212.521 55.4C212.521 56.0133 212.201 56.5067 211.561 56.88C210.921 57.2533 210.108 57.44 209.121 57.44C207.868 57.44 206.881 57.0533 206.161 56.28C205.441 55.48 205.081 54.3867 205.081 53V38.4H204.521C203.428 38.4 202.628 38.44 202.121 38.52L202.161 37.6C202.188 37.0133 202.481 36.72 203.041 36.72H205.081V33.16C205.081 32.6 205.255 32.1733 205.601 31.88C205.948 31.56 206.401 31.4 206.961 31.4C207.628 31.4 208.241 31.64 208.801 32.12C208.508 33.0267 208.348 34.56 208.321 36.72H209.921ZM227.476 36.72C227.903 36.72 228.463 36.7067 229.156 36.68C229.876 36.6533 230.449 36.6267 230.876 36.6L230.836 37.48C230.809 37.7467 230.716 37.9733 230.556 38.16C230.396 38.32 230.196 38.4 229.956 38.4H225.836V39.92V52.8C225.836 53.4933 225.996 54.0267 226.316 54.4C226.636 54.7733 227.116 54.96 227.756 54.96C228.156 54.96 228.529 54.8933 228.876 54.76C229.249 54.6 229.503 54.3867 229.636 54.12C229.929 54.52 230.076 54.9467 230.076 55.4C230.076 56.0133 229.756 56.5067 229.116 56.88C228.476 57.2533 227.663 57.44 226.676 57.44C225.423 57.44 224.436 57.0533 223.716 56.28C222.996 55.48 222.636 54.3867 222.636 53V38.4H222.076C220.983 38.4 220.183 38.44 219.676 38.52L219.716 37.6C219.743 37.0133 220.036 36.72 220.596 36.72H222.636V33.16C222.636 32.6 222.809 32.1733 223.156 31.88C223.503 31.56 223.956 31.4 224.516 31.4C225.183 31.4 225.796 31.64 226.356 32.12C226.063 33.0267 225.903 34.56 225.876 36.72H227.476ZM255.391 55.04C255.391 62.56 252.257 66.32 245.991 66.32C244.071 66.32 242.444 65.9733 241.111 65.28C239.804 64.5867 239.151 63.4933 239.151 62C239.151 61.2533 239.364 60.6267 239.791 60.12C240.244 59.6133 240.831 59.36 241.551 59.36C242.271 59.36 242.791 59.56 243.111 59.96C242.764 60.1733 242.511 60.4533 242.351 60.8C242.191 61.1733 242.111 61.52 242.111 61.84C242.111 62.88 242.484 63.6533 243.231 64.16C244.004 64.6933 244.924 64.96 245.991 64.96C248.177 64.96 249.791 64.1333 250.831 62.48C251.871 60.8267 252.391 58.36 252.391 55.08C252.391 54.2 252.431 53.24 252.511 52.2C251.951 53.8267 251.084 55.0933 249.911 56C248.737 56.9067 247.297 57.36 245.591 57.36C243.537 57.36 242.017 56.72 241.031 55.44C240.044 54.1333 239.537 51.9733 239.511 48.96V41.2C239.511 39.36 239.337 37.92 238.991 36.88C239.577 36.4 240.204 36.16 240.871 36.16C241.404 36.16 241.831 36.32 242.151 36.64C242.497 36.96 242.671 37.4 242.671 37.96L242.711 48.56C242.711 51.0133 242.991 52.8 243.551 53.92C244.137 55.0133 245.097 55.56 246.431 55.56C248.057 55.56 249.431 54.7867 250.551 53.24C251.671 51.6667 252.231 49.2667 252.231 46.04C252.231 42.68 252.204 40.4933 252.151 39.48C252.097 38.4667 251.937 37.6 251.671 36.88C252.231 36.4 252.844 36.16 253.511 36.16C254.044 36.16 254.484 36.3333 254.831 36.68C255.177 37.0267 255.351 37.4933 255.351 38.08L255.391 55.04Z" fill="white"/>
</svg>
