<svg width="26" height="26" viewBox="0 0 26 26" fill="none" xmlns="http://www.w3.org/2000/svg">
<path d="M20.5833 11.9167H5.41667C4.22005 11.9167 3.25 12.8867 3.25 14.0834V21.6667C3.25 22.8633 4.22005 23.8334 5.41667 23.8334H20.5833C21.78 23.8334 22.75 22.8633 22.75 21.6667V14.0834C22.75 12.8867 21.78 11.9167 20.5833 11.9167Z" stroke="#9B9B9B" stroke-width="2" stroke-linecap="round" stroke-linejoin="round"/>
<path d="M7.58333 11.9167V7.58335C7.58333 6.14676 8.15401 4.76901 9.16983 3.75319C10.1857 2.73737 11.5634 2.16669 13 2.16669C14.4366 2.16669 15.8143 2.73737 16.8302 3.75319C17.846 4.76901 18.4167 6.14676 18.4167 7.58335V11.9167" stroke="#9B9B9B" stroke-width="2" stroke-linecap="round" stroke-linejoin="round"/>
</svg>
