<svg width="34" height="34" viewBox="0 0 34 34" fill="none" xmlns="http://www.w3.org/2000/svg">
<path d="M26.9167 4.25H7.08333C5.51853 4.25 4.25 5.51853 4.25 7.08333V26.9167C4.25 28.4815 5.51853 29.75 7.08333 29.75H26.9167C28.4815 29.75 29.75 28.4815 29.75 26.9167V7.08333C29.75 5.51853 28.4815 4.25 26.9167 4.25Z" stroke="#5C3315" stroke-width="2" stroke-linecap="round" stroke-linejoin="round"/>
<path d="M12.0417 14.1665C13.2153 14.1665 14.1667 13.2151 14.1667 12.0415C14.1667 10.8679 13.2153 9.9165 12.0417 9.9165C10.8681 9.9165 9.91666 10.8679 9.91666 12.0415C9.91666 13.2151 10.8681 14.1665 12.0417 14.1665Z" stroke="#5C3315" stroke-width="2" stroke-linecap="round" stroke-linejoin="round"/>
<path d="M29.75 21.2498L22.6667 14.1665L7.08334 29.7498" stroke="#5C3315" stroke-width="2" stroke-linecap="round" stroke-linejoin="round"/>
</svg>
